# xmcd
#
# Track frame offsets: 
#        150
#        17112
#        36102
#        56181
#        66984
#        79276
#        100990
#        115168
#        134491
#        153813
#        176692
#        193812
#        211673
#        224516
#
# Disc length: 3277 seconds
#
# Revision: 1
# Processed by: cddbd v1.5.1PL2 Copyright (c) Steve Scherf et al.
# Submitted via: ExactAudioCopy v0.90b4
#
DISCID=ce0ccb0e
DTITLE=Notkea rotta - Itä meidän
DYEAR=2005
DGENRE=Hip-Hop
TTITLE0=16 kilsaa Kontulaan
TTITLE1=Maailma on rotta
TTITLE2=Kenttäsika kehtaa
TTITLE3=Rautis tulee, ota koppi
TTITLE4=Ei oo pilottia karvoihin katsominen
TTITLE5=Taas lähtee taju
TTITLE6=Elementtihelvetin häpykarvahippaa
TTITLE7=Kuka muilutti Nukkumatin?
TTITLE8=Idän pikamuna
TTITLE9=Raksalla
TTITLE10=Meno-Anu ostoksilla
TTITLE11=Tukipylväs tukistaa
TTITLE12=Idän hampaat
TTITLE13=Itä meidän
EXTD=
EXTT0=
EXTT1=
EXTT2=
EXTT3=
EXTT4=
EXTT5=
EXTT6=
EXTT7=
EXTT8=
EXTT9=
EXTT10=
EXTT11=
EXTT12=
EXTT13=
PLAYORDER=
